# xmcd CD database file
#
# Track frame offsets:
#	150
#	35908
#	80486
#	102670
#	134797
#	174939
#	195832
#	224539
#
# Disc length: 3544 seconds
#
# Revision: 2
# Processed by: cddbd v1.5.2PL0 Copyright (c) Steve Scherf et al.
# Submitted via: CDex 1.51
#
DISCID=750dd608
DTITLE=D¿em - List do R., vol.3
DYEAR=1995
DGENRE=Blues
TTITLE0=Cala w trawie
TTITLE1=Obluda
TTITLE2=Czlowieku co sie z toba dzieje
TTITLE3=Sen o Victorii
TTITLE4=List do M
TTITLE5=Jak malowany ptak
TTITLE6=Zapal swieczke
TTITLE7=Whisky
EXTD=YEAR: 1995
EXTT0=
EXTT1=
EXTT2=
EXTT3=
EXTT4=
EXTT5=
EXTT6=
EXTT7=
PLAYORDER=
